<?xml version="1.0" encoding="UTF-8" standalone="no"?> <svg id="Layer_1" data-name="Layer 1" xmlns="http://www.w3.org/2000/svg" viewBox="0 0 512 512"><defs><style>.cls-1{fill:#ffd38d;}.cls-2{fill:#6d4135;}</style></defs><title>details-view-filled</title><rect class="cls-1" x="192" y="21.33" width="298.67" height="85.33"/><path class="cls-2" d="M490.67,128H192a21.33,21.33,0,0,1-21.33-21.33V21.33A21.33,21.33,0,0,1,192,0H490.67A21.33,21.33,0,0,1,512,21.33v85.33A21.33,21.33,0,0,1,490.67,128ZM213.33,85.33h256V42.67h-256Z"/><rect class="cls-1" x="192" y="213.33" width="298.67" height="85.33"/><path class="cls-2" d="M490.67,320H192a21.33,21.33,0,0,1-21.33-21.33V213.33A21.33,21.33,0,0,1,192,192H490.67A21.33,21.33,0,0,1,512,213.33v85.33A21.33,21.33,0,0,1,490.67,320ZM213.33,277.33h256V234.67h-256Z"/><rect class="cls-1" x="192" y="405.33" width="298.67" height="85.33"/><path class="cls-2" d="M490.67,512H192a21.33,21.33,0,0,1-21.33-21.33V405.33A21.33,21.33,0,0,1,192,384H490.67A21.33,21.33,0,0,1,512,405.33v85.33A21.33,21.33,0,0,1,490.67,512ZM213.33,469.33h256V426.67h-256Z"/><rect class="cls-1" x="21.33" y="21.33" width="85.33" height="85.33"/><path class="cls-2" d="M106.67,128H21.33A21.33,21.33,0,0,1,0,106.67V21.33A21.33,21.33,0,0,1,21.33,0h85.33A21.33,21.33,0,0,1,128,21.33v85.33A21.33,21.33,0,0,1,106.67,128Zm-64-42.67H85.33V42.67H42.67Z"/><rect class="cls-1" x="21.33" y="213.33" width="85.33" height="85.33"/><path class="cls-2" d="M106.67,320H21.33A21.33,21.33,0,0,1,0,298.67V213.33A21.33,21.33,0,0,1,21.33,192h85.33A21.33,21.33,0,0,1,128,213.33v85.33A21.33,21.33,0,0,1,106.67,320Zm-64-42.67H85.33V234.67H42.67Z"/><rect class="cls-1" x="21.33" y="405.33" width="85.33" height="85.33"/><path class="cls-2" d="M106.67,512H21.33A21.33,21.33,0,0,1,0,490.67V405.33A21.33,21.33,0,0,1,21.33,384h85.33A21.33,21.33,0,0,1,128,405.33v85.33A21.33,21.33,0,0,1,106.67,512Zm-64-42.67H85.33V426.67H42.67Z"/></svg>